<svg width="53" height="53" viewBox="0 0 53 53" fill="none" xmlns="http://www.w3.org/2000/svg">
<path fill-rule="evenodd" clip-rule="evenodd" d="M29.9375 0C31.6288 0 33 1.37115 33 3.06255C33 5.7919 36.3007 7.1579 38.2294 5.22676L38.4032 5.05282C39.5631 3.89142 41.4186 3.80984 42.676 4.86494L47.4981 8.91119C49.0649 10.2259 49.1693 12.6005 47.724 14.0476L47.3846 14.3874C45.3148 16.4597 46.7826 20 49.7114 20C51.5276 20 53 21.4724 53 23.2886V30.0462C53 31.6776 51.6776 33 50.0462 33C47.4156 33 46.0973 36.1798 47.9563 38.0411L48.0797 38.1647C49.3338 39.4203 49.2432 41.4806 47.8837 42.6213L42.676 46.9912C41.4186 48.0463 39.5631 47.9647 38.4032 46.8033C36.4103 44.808 33 46.2194 33 49.0394V49.6026C33 51.4789 31.4789 53 29.6026 53H23.2766C21.467 53 20 51.533 20 49.7234V49.0293C20 46.3651 16.7782 45.0318 14.8955 46.9168C13.7997 48.014 12.0468 48.091 10.8589 47.0943L5.52827 42.6213C4.16882 41.4806 4.07822 39.4203 5.33231 38.1647C7.23687 36.2577 5.88628 33 3.19116 33H3.07452C1.37651 33 0 31.6235 0 29.9255V23.4094C0 21.5264 1.52642 20 3.40935 20C6.44575 20 7.96735 16.3297 5.82162 14.1814L5.68804 14.0476C4.24268 12.6005 4.34709 10.2259 5.91389 8.91119L10.8589 4.76185C12.0468 3.76507 13.7997 3.84215 14.8955 4.93935L14.9767 5.02067C16.8294 6.87567 20 5.56354 20 2.9418C20 1.31709 21.3171 0 22.9418 0H29.9375ZM26.5 38C32.8513 38 38 32.8513 38 26.5C38 20.1487 32.8513 15 26.5 15C20.1487 15 15 20.1487 15 26.5C15 32.8513 20.1487 38 26.5 38Z" fill="white"/>
</svg>
